<?xml version="1.0" encoding="UTF-8"?>
<svg xmlns="http://www.w3.org/2000/svg" style="display:none">
  <!-- PDF icon -->
  <symbol id="icon-pdf" viewBox="0 0 24 24">
    <path
      fill="none"
      stroke="currentColor"
      stroke-linecap="round"
      stroke-linejoin="round"
      stroke-width="1.6"
      d="M5 17v-5h1.5a1.5 1.5 0 1 1 0 3H5m12 2v-5h2m-2 3h2M5 10V7.914a1 1 0 0 1 .293-.707l3.914-3.914A1 1 0 0 1 9.914 3H18a1 1 0 0 1 1 1v6M5 19v1a1 1 0 0 0 1 1h12a1 1 0 0 0 1-1v-1M10 3v4a1 1 0 0 1-1 1H5m6 4v5h1.375A1.627 1.627 0 0 0 14 15.375v-1.75A1.627 1.627 0 0 0 12.375 12H11Z"
    />
  </symbol>

  <!-- Map / location icon -->
  <symbol id="icon-map" viewBox="0 0 24 24">
    <path
      fill="none"
      stroke="currentColor"
      stroke-linecap="round"
      stroke-linejoin="round"
      stroke-width="1.6"
      d="M12 13a3 3 0 1 0 0-6 3 3 0 0 0 0 6Z"
    />
    <path
      fill="none"
      stroke="currentColor"
      stroke-linecap="round"
      stroke-linejoin="round"
      stroke-width="1.6"
      d="M17.8 13.938h-.011a7 7 0 1 0-11.464.144h-.016l.14.171c.1.127.2.251.3.371L12 21l5.13-6.248c.194-.209.374-.429.54-.659l.13-.155Z"
    />
  </symbol>
  
  <!-- WhatsApp (solid detailed version) -->
    <symbol id="icon-whatsapp" viewBox="0 0 24 24">
      <path
        fill="currentColor"
        fill-rule="evenodd"
        d="M12 4a8 8 0 0 0-6.895 12.06l.569.718-.697 2.359 2.32-.648.379.243A8 8 0 1 0 12 4ZM2 12C2 6.477 6.477 2 12 2s10 4.477 10 10-4.477 10-10 10a9.96 9.96 0 0 1-5.016-1.347l-4.948 1.382 1.426-4.829-.006-.007-.033-.055A9.958 9.958 0 0 1 2 12Z"
        clip-rule="evenodd"
      />
      <path
        fill="currentColor"
        d="M16.735 13.492c-.038-.018-1.497-.736-1.756-.83a1.008 1.008 0 0 0-.34-.075c-.196 0-.362.098-.49.291-.146.217-.587.732-.723.886-.018.02-.042.045-.057.045-.013 0-.239-.093-.307-.123-1.564-.68-2.751-2.313-2.914-2.589-.023-.04-.024-.057-.024-.057.005-.021.058-.074.085-.101.08-.079.166-.182.249-.283l.117-.14c.121-.14.175-.25.237-.375l.033-.066a.68.68 0 0 0-.02-.64c-.034-.069-.65-1.555-.715-1.711-.158-.377-.366-.552-.655-.552-.027 0 0 0-.112.005-.137.005-.883.104-1.213.311-.35.22-.94.924-.94 2.16 0 1.112.705 2.162 1.008 2.561l.041.06c1.161 1.695 2.608 2.951 4.074 3.537 1.412.564 2.081.63 2.461.63.16 0 .288-.013.4-.024l.072-.007c.488-.043 1.56-.599 1.804-1.276.192-.534.243-1.117.115-1.329-.088-.144-.239-.216-.43-.308Z"
      />
    </symbol>
    
    <symbol id="icon-whatsapp-fat" viewBox="0 0 32 32">
      <path 
        d="M16 1C8.27 1 2 7.27 2 15c0 2.62.74 5.15 2.15 7.35L2 30l8.01-2.1A14.06 14.06 0 0 0 16 29c7.73 0 14-6.27 14-14S23.73 1 16 1zm0 26c-2.34 
        0-4.62-.63-6.6-1.83l-.47-.28-4.76 1.25 1.27-4.64-.31-.48A11.9 11.9 0 0 1 4 15C4 8.93 8.93 4 16 4s12 4.93 
        12 11-4.93 12-12 12zm6.18-8.82c-.34-.17-2.03-1-2.35-1.12-.31-.12-.54-.17-.76.17-.23.34-.88 1.12-1.09 
        1.35-.2.23-.4.26-.74.09-.34-.17-1.42-.52-2.7-1.67-1-.89-1.67-1.98-1.87-2.31-.2-.34-.02-.52.15-.69.16-.16.34-.4.51-.6.17-.2.23-.34.34-.57.12-.23.06-.43-.03-.6-.09-.17-.76-1.83-1.05-2.5-.28-.66-.57-.57-.76-.57h-.66c-.23 
        0-.6.09-.91.43-.31.34-1.2 1.17-1.2 2.86 0 1.69 1.23 3.32 1.4 3.55.17.23 2.42 3.71 5.86 5.19.82.35 
        1.46.56 1.96.71.82.26 1.57.23 2.17.14.66-.09 2.03-.83 2.31-1.63.29-.8.29-1.49.2-1.63-.09-.14-.31-.23-.66-.4z"
        fill="currentColor"/>
    </symbol>

    
  <!-- Envelope -->

    <symbol id="icon-envelope" viewBox="0 0 24 24">
      <path
        fill="none"
        stroke="currentColor"
        stroke-linecap="round"
        stroke-width="2"
        d="m3.5 5.5 7.893 6.036a1 1 0 0 0 1.214 0L20.5 5.5M4 19h16a1 1 0 0 0 1-1V6a1 1 0 0 0-1-1H4a1 1 0 0 0-1 1v12a1 1 0 0 0 1 1Z"/>
    </symbol>

  <!-- Youtube -->

    <symbol id="icon-youtube" viewBox="0 0 24 24">
      <path fill="currentColor" fill-rule="evenodd" clip-rule="evenodd"
        d="M21.7 8.037a4.26 4.26 0 0 0-.79-1.964 2.84 2.84 0 0 0-1.983-.839c-2.767-.2-6.926-.2-6.926-.2s-4.157 0-6.928.2a2.836 2.836 0 0 0-1.983.839 4.225 4.225 0 0 0-.79 1.965A30.146 30.146 0 0 0 2.1 11.243v1.5a30.12 30.12 0 0 0 .2 3.206c.094.712.364 1.39.784 1.972.604.536 1.38.837 2.187.848 1.583.151 6.731.2 6.731.2s4.161 0 6.928-.2a2.844 2.844 0 0 0 1.985-.84 4.27 4.27 0 0 0 .787-1.965 30.12 30.12 0 0 0 .2-3.206V11.25a30.672 30.672 0 0 0-.202-3.206ZM10.008 14.59v-5.62l5.4 2.819-5.4 2.801Z"/>
    </symbol>

  <!-- Linkedin -->

    <symbol id="icon-linkedin" viewBox="0 0 24 24">
      <path fill="currentColor" fill-rule="evenodd" clip-rule="evenodd"
        d="M12.51 8.796v1.697a3.738 3.738 0 0 1 3.288-1.684c3.455 0 4.202 2.16 4.202 4.97V19.5h-3.2v-5.072c0-1.21-.244-2.766-2.128-2.766-1.827 0-2.139 1.317-2.139 2.676V19.5h-3.19V8.796h3.168Zm-5.31-2.69a1.61 1.61 0 1 1-2.731 1.135 1.607 1.607 0 0 1 2.731-1.135Z"/>
      <path fill="currentColor" d="M7.2 8.809H4V19.5h3.2V8.809Z"/>
    </symbol>

  <!-- Facebook -->

    <symbol id="icon-facebook" viewBox="0 0 24 24">
      <path fill="currentColor" fill-rule="evenodd" clip-rule="evenodd"
        d="M13.135 6H15V3h-1.865A4.147 4.147 0 0 0 9 7.142V9H7v3h2v9.938h3V12h2.021l.592-3H12V6.591A.6.6 0 0 1 12.592 6h.543Z"/>
    </symbol>
    
    <!-- Instagram -->
    <symbol id="icon-instagram" viewBox="0 0 24 24">
      <path fill="currentColor" fill-rule="evenodd" clip-rule="evenodd"
        d="M3 8a5 5 0 0 1 5-5h8a5 5 0 0 1 5 5v8a5 5 0 0 1-5 5H8a5 5 0 0 1-5-5V8Zm5-3a3 3 0 0 0-3 3v8a3 3 0 0 0 3 3h8a3 3 0 0 0 3-3V8a3 3 0 0 0-3-3H8Zm7.6 2.214a1 1 0 1 1 2 0 1 1 0 0 1-2 0ZM12 9a3 3 0 1 0 0 6 3 3 0 0 0 0-6Zm-5 3a5 5 0 1 1 10 0 5 5 0 0 1-10 0Z"/>
    </symbol>


  <!-- bed -->

    <symbol id="icon-bed" viewBox="0 0 24 24">
        <path d="M18 17v2M12 5.5V10m-6 7v2m15-2v-4c0-1.6569-1.3431-3-3-3H6c-1.65685 0-3 1.3431-3 3v4h18Zm-2-7V8c0-1.65685-1.3431-3-3-3H8C6.34315 5 5 6.34315 5 8v2h14Z"
              fill="none"
              stroke="currentColor"
              stroke-width="2"
              stroke-linecap="round"
              stroke-linejoin="round" />
    </symbol>

  <!-- user -->

    <symbol id="icon-user" viewBox="0 0 24 24">
        <path d="M7 17v1a1 1 0 0 0 1 1h8a1 1 0 0 0 1-1v-1a3 3 0 0 0-3-3h-4a3 3 0 0 0-3 3Zm8-9a3 3 0 1 1-6 0 3 3 0 0 1 6 0Z"
              fill="none"
              stroke="currentColor"
              stroke-width="2"
        />
    </symbol>
    
    <!-- Search -->

    <symbol id="icon-search" viewBox="0 0 20 20">
    <path d="m21 21-3.5-3.5M17 10a7 7 0 1 1-14 0 7 7 0 0 1 14 0Z"
          fill="none"
          stroke="currentColor"
          stroke-width="2"
          stroke-linecap="round" />
    </symbol>
    
      <!-- Menu bars -->

    <symbol id="icon-bars" viewBox="0 0 24 24">
        <path d="M5 7h14M5 12h14M5 17h14"
              fill="none"
              stroke="currentColor"
              stroke-width="2"
              stroke-linecap="round" />
    </symbol>

    <!-- icon-sort -->
    <symbol id="icon-sort" viewBox="0 0 24 24">
      <path
        fill="none"
        stroke="currentColor"
        stroke-linecap="round"
        stroke-linejoin="round"
        stroke-width="2"
        d="M4 7h10M4 12h7M4 17h4M18 7l3 3m0 0-3 3m3-3H11"
      />
    </symbol>

    <!-- icon-close -->
    <symbol id="icon-close" viewBox="0 0 24 24">
      <path
        fill="none"
        stroke="currentColor"
        stroke-linecap="round"
        stroke-linejoin="round"
        stroke-width="2"
        d="M6 6l12 12M18 6l-12 12"
      />
    </symbol>

    <!-- icon-cookie -->
    <symbol id="icon-cookie" viewBox="0 0 24 24">
      <path
        stroke="currentColor"
        stroke-linecap="round"
        stroke-linejoin="round"
        stroke-width="2"
        d="M8.65692 9.41494h.01M7.27103 13h.01m7.67737 1.9156h.01M10.9999 17h.01m3.178-10.90671c-.8316.38094-1.8475.22903-2.5322-.45571-.3652-.36522-.5789-.82462-.6409-1.30001-.0574-.44-.0189-.98879.1833-1.39423-1.99351.20001-3.93304 1.06362-5.46025 2.59083-3.51472 3.51472-3.51472 9.21323 0 12.72793 3.51471 3.5147 9.21315 3.5147 12.72795 0 1.5601-1.5602 2.4278-3.5507 2.6028-5.5894-.2108.008-.6725.0223-.8328.0157-.635.0644-1.2926-.1466-1.779-.633-.3566-.3566-.5651-.8051-.6257-1.2692-.0561-.4293.0145-.87193.2117-1.26755-.1159.20735-.2619.40237-.4381.57865-1.0283 1.0282-2.6953 1.0282-3.7235 0-1.0282-1.02824-1.0282-2.69531 0-3.72352.0977-.09777.2013-.18625.3095-.26543"
      />
    </symbol>

    <!-- icon-currency -->
    <symbol id="icon-currency" viewBox="0 0 24 24">
      <path stroke="currentColor" stroke-linecap="round" stroke-width="2"
            d="M8 7V6a1 1 0 0 1 1-1h11a1 1 0 0 1 1 1v7a1 1 0 0 1-1 1h-1"/>
      <path stroke="currentColor" stroke-linecap="round" stroke-width="2"
            d="M3 18v-7a1 1 0 0 1 1-1h11a1 1 0 0 1 1 1v7a1 1 0 0 1-1 1H4a1 1 0 0 1-1-1Z"/>
      <path stroke="currentColor" stroke-linecap="round" stroke-width="2"
            d="M11 14.5a1.5 1.5 0 1 1-3 0 1.5 1.5 0 0 1 3 0Z"/>
    </symbol>

    <!-- icon-hammer -->
    <symbol id="icon-hammer" viewBox="0 0 24 24">
      <path stroke="currentColor" stroke-linejoin="round" stroke-width="2"
            d="m20.9532 11.7634-2.0523-2.05225-2.0523 2.05225 2.0523 2.0523 2.0523-2.0523Zm-1.3681-2.73651-4.1046-4.10457L12.06 8.3428l4.1046 4.1046 3.4205-3.42051Zm-4.1047 2.73651-2.7363-2.73638-8.20919 8.20918 2.73639 2.7364 8.2091-8.2092Z"/>
      <path stroke="currentColor" stroke-linejoin="round" stroke-width="2"
            d="m12.9306 3.74083 1.8658 1.86571-2.0523 2.05229-1.5548-1.55476c-.995-.99505-3.23389-.49753-3.91799.18657l2.73639-2.73639c.6841-.68409 1.9901-.74628 2.9229.18658Z"/>
    </symbol>

    <!-- icon-legal -->
    <symbol id="icon-legal" viewBox="0 0 24 24">
      <path stroke="currentColor" stroke-width="2" stroke-linejoin="round"
            d="M6 3h12v18H6z"/>
      <path stroke="currentColor" stroke-width="2" stroke-linecap="round"
            d="M9 8h6M9 12h6M9 16h6"/>
    </symbol>

    <!-- icon-property -->
    <symbol id="icon-property" viewBox="0 0 24 24">
      <path stroke="currentColor" stroke-linecap="round" stroke-linejoin="round" stroke-width="2"
            d="M6 4h12M6 4v16M6 4H5m13 0v16m0-16h1m-1 16H6m12 0h1M6 20H5"/>
      <path stroke="currentColor" stroke-linecap="round" stroke-linejoin="round" stroke-width="2"
            d="M9 7h1v1H9V7Zm5 0h1v1h-1V7Zm-5 4h1v1H9v-1Zm5 0h1v1h-1v-1Z"/>
      <path stroke="currentColor" stroke-linecap="round" stroke-linejoin="round" stroke-width="2"
            d="M11 15h2a1 1 0 0 1 1 1v4h-4v-4a1 1 0 0 1 1-1Z"/>
    </symbol>

    <!-- icon-tapu -->
    <symbol id="icon-tapu" viewBox="0 0 24 24">
      <rect x="5" y="3" width="14" height="18" rx="2"
            stroke="currentColor" stroke-width="2"/>
      <path stroke="currentColor" stroke-width="2"
            d="M8 7h8M8 11h8M8 15h5"/>
    </symbol>

    <!-- icon-valuation -->
    <symbol id="icon-valuation" viewBox="0 0 24 24">
      <path stroke="currentColor" stroke-linecap="round" stroke-linejoin="round" stroke-width="2"
            d="M15 4h3a1 1 0 0 1 1 1v15a1 1 0 0 1-1 1H6a1 1 0 0 1-1-1V5a1 1 0 0 1 1-1h3"/>
      <path stroke="currentColor" stroke-linecap="round" stroke-linejoin="round" stroke-width="2"
            d="M9 7h6"/>
      <path stroke="currentColor" stroke-linecap="round" stroke-linejoin="round" stroke-width="2"
            d="m9 14 2 2 4-4"/>
      <path stroke="currentColor" stroke-linecap="round" stroke-linejoin="round" stroke-width="2"
            d="M10 3v4h4V3h-4Z"/>
    </symbol>

    <!-- icon-user -->
    <symbol id="icon-user" viewBox="0 0 24 24">
      <path stroke="currentColor" stroke-width="2"
            d="M7 17v1a1 1 0 0 0 1 1h8a1 1 0 0 0 1-1v-1a3 3 0 0 0-3-3h-4a3 3 0 0 0-3 3Zm8-9a3 3 0 1 1-6 0 3 3 0 0 1 6 0Z"/>
    </symbol>

    <!-- icon-users -->
    <symbol id="icon-users" viewBox="0 0 24 24">
      <path stroke="currentColor" stroke-linecap="round" stroke-width="2"
            d="M16 19h4a1 1 0 0 0 1-1v-1a3 3 0 0 0-3-3h-2m-2.236-4a3 3 0 1 0 0-4M3 18v-1a3 3 0 0 1 3-3h4a3 3 0 0 1 3 3v1a1 1 0 0 1-1 1H4a1 1 0 0 1-1-1Zm8-10a3 3 0 1 1-6 0 3 3 0 0 1 6 0Z"/>
    </symbol>

    <!-- icon-users-group -->
    <symbol id="icon-users-group" viewBox="0 0 24 24">
      <path stroke="currentColor" stroke-linecap="round" stroke-linejoin="round" stroke-width="2"
            d="M16 12h4m-2 2v-4M4 18v-1a3 3 0 0 1 3-3h4a3 3 0 0 1 3 3v1a1 1 0 0 1-1 1H5a1 1 0 0 1-1-1Zm8-10a3 3 0 1 1-6 0 3 3 0 0 1 6 0Z"/>
    </symbol>

    <!-- icon-user-add -->
    <symbol id="icon-user-add" viewBox="0 0 24 24">
      <path stroke="currentColor" stroke-linecap="round" stroke-linejoin="round" stroke-width="2"
            d="M16 12h4m-2 2v-4M4 18v-1a3 3 0 0 1 3-3h4a3 3 0 0 1 3 3v1a1 1 0 0 1-1 1H5a1 1 0 0 1-1-1Zm8-10a3 3 0 1 1-6 0 3 3 0 0 1 6 0Z"/>
    </symbol>

    <!-- icon-shield-check -->
    <symbol id="icon-shield-check" viewBox="0 0 24 24">
      <path stroke="currentColor" stroke-linecap="round" stroke-linejoin="round" stroke-width="2"
            d="M9.5 11.5 11 13l4-3.5"/>
      <path stroke="currentColor" stroke-linecap="round" stroke-linejoin="round" stroke-width="2"
            d="M12 20a16.405 16.405 0 0 1-5.092-5.804A16.694 16.694 0 0 1 5 6.666L12 4l7 2.667a16.695 16.695 0 0 1-1.908 7.529A16.406 16.406 0 0 1 12 20Z"/>
    </symbol>

    <!-- icon-folder-duplicate -->
    <symbol id="icon-folder-duplicate" viewBox="0 0 24 24">
      <path stroke="currentColor" stroke-linecap="round" stroke-linejoin="round" stroke-width="2"
            d="M12 11H4m15.5 5a.5.5 0 0 0 .5-.5V8a1 1 0 0 0-1-1h-3.75a1 1 0 0 1-.829-.44l-1.436-2.12a1 1 0 0 0-.828-.44H8a1 1 0 0 0-1 1M4 9v10a1 1 0 0 0 1 1h11a1 1 0 0 0 1-1v-7a1 1 0 0 0-1-1h-3.75a1 1 0 0 1-.829-.44L9.985 8.44A1 1 0 0 0 9.157 8H5a1 1 0 0 0-1 1Z"/>
    </symbol>

    <!-- icon-home -->
    <symbol id="icon-home" viewBox="0 0 24 24">
      <path stroke="currentColor" stroke-linecap="round" stroke-linejoin="round" stroke-width="2"
            d="m4 12 8-8 8 8M6 10.5V19a1 1 0 0 0 1 1h3v-3a1 1 0 0 1 1-1h2a1 1 0 0 1 1 1v3h3a1 1 0 0 0 1-1v-8.5"/>
    </symbol>
    
    <symbol id="icon-key-ready" viewBox="0 0 512 512">
      <path
        fill="currentColor"
        d="M512 176.001C512 273.203 433.202 352 336 352c-11.22 0-22.19-1.062-32.827-3.069l-24.012 27.014A23.999 23.999 0 0 1 261.223 384H224v40c0 13.255-10.745 24-24 24h-40v40c0 13.255-10.745 24-24 24H24c-13.255 0-24-10.745-24-24v-78.059c0-6.365 2.529-12.47 7.029-16.971l161.802-161.802C163.108 213.814 160 195.271 160 176 160 78.798 238.797.001 335.999 0 433.488-.001 512 78.511 512 176.001zM336 128c0 26.51 21.49 48 48 48s48-21.49 48-48-21.49-48-48-48-48 21.49-48 48z"
      />
    </symbol>

    <!-- icon-door-open -->

    <symbol
      id="icon-door-open"
      viewBox="0 0 24 24"
    >
      <path
        fill="none"
        stroke="currentColor"
        stroke-width="2"
        stroke-linecap="round"
        stroke-linejoin="round"
        d="M18 18V6h-5v12h5Zm0 0h2M4 18h2.5m3.5-5.5V12M6 6l7-2v16l-7-2V6Z"
      />
    </symbol>
    
    <!-- icon-check -->
    <symbol
      id="icon-check"
      viewBox="0 0 24 24"
    >
      <path
        fill="none"
        stroke="currentColor"
        stroke-width="2"
        stroke-linecap="round"
        stroke-linejoin="round"
        d="M8.5 11.5 11 14l4-4m6 2a9 9 0 1 1-18 0 9 9 0 0 1 18 0Z"
      />
    </symbol>

    <!-- icon-building -->

    <symbol id="icon-building" viewBox="0 0 24 24">
      <path
        fill="none"
        stroke="currentColor"
        stroke-width="2"
        stroke-linecap="round"
        stroke-linejoin="round"
        d="M6 4h12M6 4v16M6 4H5m13 0v16m0-16h1m-1 16H6m12 0h1M6 20H5M9 7h1v1H9V7Zm5 0h1v1h-1V7Zm-5 4h1v1H9v-1Zm5 0h1v1h-1v-1Zm-3 4h2a1 1 0 0 1 1 1v4h-4v-4a1 1 0 0 1 1-1Z"
      />
    </symbol>


    <symbol
      id="icon-arrows-expand"
      viewBox="0 0 24 24"
      fill="none"
    >
      <path
        stroke="currentColor"
        stroke-linecap="round"
        stroke-linejoin="round"
        stroke-width="2"
        d="M8 4H4m0 0v4m0-4 5 5m7-5h4m0 0v4m0-4-5 5
           M8 20H4m0 0v-4m0 4 5-5m7 5h4m0 0v-4m0 4-5-5"
      />
    </symbol>

    <symbol
      id="icon-layout-grid"
      viewBox="0 0 24 24"
      fill="none"
    >
      <path
        stroke="currentColor"
        stroke-linecap="round"
        stroke-linejoin="round"
        stroke-width="2"
        d="M4 4h6v6H4V4Zm10 0h6v6h-6V4ZM4 14h6v6H4v-6Zm10 0h6v6h-6v-6Z"
      />
    </symbol>

    <symbol id="icon-chevron-left" viewBox="0 0 24 24">
      <path
        d="M15 18l-6-6 6-6"
        fill="none"
        stroke="currentColor"
        stroke-width="2"
        stroke-linecap="round"
        stroke-linejoin="round"
      />
    </symbol>
    
    <symbol id="icon-chevron-right" viewBox="0 0 24 24">
      <path
        d="M9 6l6 6-6 6"
        fill="none"
        stroke="currentColor"
        stroke-width="2"
        stroke-linecap="round"
        stroke-linejoin="round"
      />
    </symbol>

<symbol id="icon-image" viewBox="0 0 24 24">
  <path
    fill="none"
    stroke="currentColor"
    stroke-linecap="round"
    stroke-linejoin="round"
    stroke-width="1.6"
    d="m3 16 5-7 6 6.5m6.5 2.5L16 13l-4.286 6M14 10h.01M4 19h16a1 1 0 0 0 1-1V6a1 1 0 0 0-1-1H4a1 1 0 0 0-1 1v12a1 1 0 0 0 1 1Z"
  />
</symbol>


<symbol id="icon-gallery-stack" viewBox="0 0 20 17">
  <path 
  fill="none" 
  stroke="currentColor"
  stroke-width="1.1" 
  stroke-linecap="round" 
  stroke-linejoin="round"
    d="M18.7 4.5h-3.1L14.8.6c-.2-.4-.5-.6-.8-.6 0 0-.1 0-13.4 2.8-.4 0-.7.4-.6.8l2.1 10.1c.1.3.4.6.7.6 0 0 .1 0 1.7-.3v1.5c0 .4.3.7.7.7h13.4c.4 0 .7-.3.7-.7V5.3c.1-.5-.2-.8-.6-.8zm-13.5 0c-.4 0-.7.3-.7.7v7.3l-1.1.2-1.8-8.6 11.8-2.4.6 2.8H5.2zm12.7 5.6c-.4.7-1.5 1.9-2.8 2-.9 0-1.8-.5-2.7-1.7-1.1-1.7-2.4-2.6-3.7-2.6-1 0-1.9.4-2.7 1.1V6h12v4.1h-.1zM6 11.1c1-1.2 1.9-1.8 2.7-1.8.8 0 1.7.7 2.6 1.9 1.4 1.9 2.8 2.4 3.8 2.4h.2c1-.1 1.9-.6 2.7-1.2v2.4H6v-3.7z"/>
    <path d="M14.9 10.2c.4 0 .7-.1 1-.4.3-.3.4-.6.4-1 0-.8-.6-1.4-1.4-1.4-.8 0-1.4.6-1.4 1.4 0 .7.6 1.4 1.4 1.4z"/>
</symbol>



<symbol id="icon-floor-plan" viewBox="0 0 18 14">
  <path
    fill="currentColor"
    d="M16.2 0H14c-.4 0-.8.3-.8.8s.3.8.8.8h2.2c.2 0 .3.1.3.3v3.7H12c-.4 0-.7.3-.7.8V8c0 .4.3.8.8.8s.8-.3.8-.8V7h3.7v4.6c0 .2-.1.3-.3.3h-3.4v-1.3c0-.4-.3-.8-.8-.8s-.8.3-.8.8v2.1c0 .4.3.8.8.8h4.1c1 0 1.8-.8 1.8-1.8V1.8c0-1-.8-1.8-1.8-1.8zM8.7 1.5H11c.4 0 .8-.3.8-.8S11.4 0 11 0H6.4c-.4 0-.8.3-.8.8s.4.7.8.7h.8v4.1H4.6c-.4 0-.8.3-.8.8s.3.8.8.8h2.6V12H1.8c-.2 0-.3-.1-.3-.3V1.8c0-.2.1-.3.3-.3H3c.4 0 .8-.3.8-.8S3.5 0 3.1 0H1.8C.8 0 0 .8 0 1.8v9.8c0 1 .8 1.8 1.8 1.8h7.7c.4 0 .8-.3.8-.8s-.3-.6-.8-.6h-.8V1.5z"
  />
</symbol>



<symbol id="icon-heart" viewBox="0 0 24 24">
  <path
    d="M12.01 6.001C6.5 1 1 8 5.782 13.001L12.011 20l6.23-7C23 8 17.5 1 12.01 6.002Z"
    fill="none"
    stroke="currentColor"
    stroke-linecap="round"
    stroke-linejoin="round"
    stroke-width="2"
  />
</symbol>


<symbol id="icon-heart-remove" viewBox="0 0 24 24">
  <rect x="5" y="11" width="14" height="2" rx="1" fill="currentColor"/>
</symbol>


</svg>
