<?xml version="1.0" encoding="utf-8"?>
<!-- Generator: Adobe Illustrator 27.1.1, SVG Export Plug-In . SVG Version: 6.00 Build 0)  -->
<svg version="1.2" baseProfile="tiny" xmlns="http://www.w3.org/2000/svg" xmlns:xlink="http://www.w3.org/1999/xlink" x="0px"
	 y="0px" viewBox="0 0 2000 1300" overflow="visible" xml:space="preserve">
<g id="Layer_1">
	<g>
		<path fill="#282E69" d="M277.8,620.3c-36.3,0-69.5,9.6-99.8,28.9c-30.3,19.3-53.2,45.4-69.4,78.4v-95.3h-17v401h17V884.4
			c16.2,33,39.1,59.1,69.4,78.4c30.3,19.3,63.6,28.9,99.8,28.9c52.3,0,96.4-17.9,132.2-53.6c35.8-35.8,53.7-79.8,53.7-132
			c0-51.8-18.1-95.6-54.4-131.4C373.4,638.4,329.6,620.3,277.8,620.3z M397.9,925.6c-32.6,32.6-72.5,48.8-119.8,48.8
			c-43.1,0-82.1-15.6-117-46.8c-34.4-31.6-51.6-69-51.6-112.1v-19.9c0-44.9,16.7-82.5,50.2-112.8c33.5-30.3,73-45.4,118.4-45.4
			c46.8,0,86.5,16.5,119.1,49.5c33,32.6,49.6,72.2,49.6,119C446.8,853.2,430.5,893.1,397.9,925.6z M837.3,742.2l0.7,1h17.7
			c-6.9-18.8-16-35.7-27.5-50.8c-11.5-15.1-24.7-28-39.9-38.8c-15.1-10.8-31.9-19-50.2-24.7c-18.3-5.7-37.4-8.6-57.1-8.6
			c-51.8,0-95.8,18.1-132,54.3c-35.7,35.7-53.6,79.4-53.6,131.2c0,51.7,17.9,95.7,53.6,131.9c36.2,35.7,80.2,53.6,132,53.6
			c39.4,0,75.2-11.2,107.2-33.7c31.6-22.4,54.1-52.2,67.4-89.3h-17.5c-12.9,32.1-33.8,57.8-62.7,77.1c-28.5,19.3-60,28.9-94.4,28.9
			c-47.3,0-87.3-16.3-119.9-48.9c-32.6-32.6-48.9-72.5-48.9-119.8c0-22,4.1-43.1,12.4-63.3H837.3z M594.4,660.6
			c26.2-15.6,55.1-23.4,86.7-23.4c31.7,0,60.6,7.8,86.7,23.4c26.2,15.6,46.8,37.1,61.9,64.6H533.1
			C547.8,697.7,568.2,676.2,594.4,660.6z M1139.5,652.9c-28.9-22-61.6-33-98.3-33c-31.6,0-60.4,7.9-86.3,23.7
			c-25.9,15.8-45.7,38.2-59.5,67.1v-77.5h-17v345h17V784.3c0-41.7,14-76.6,41.9-104.5c28.4-28.4,63-42.6,103.8-42.6
			c37.6,0,70.3,12.6,98.3,37.8V652.9z M1475.5,633.2v94.3c-15.7-33-38.7-59.1-68.9-78.4c-30.3-19.3-63.6-28.9-99.8-28.9
			c-51.9,0-95.9,18.1-132.2,54.3c-35.8,35.8-53.7,79.6-53.7,131.4c0,51.8,17.9,95.8,53.7,132c36.2,35.8,80.3,53.6,132.2,53.6
			c36.2,0,69.5-9.6,99.8-28.9c30.3-19.3,53.2-45.4,68.9-78.4v92.8l17,0.7V633.2H1475.5z M1425.8,925.6
			c-33.5,32.6-73.2,48.8-119.1,48.8c-47.3,0-87.2-16.3-119.8-48.8c-32.6-32.5-48.9-72.4-48.9-119.7c0-47.2,16.3-87.1,48.9-119.7
			c32.6-32.5,72.5-48.8,119.8-48.8c40.4,0,75.9,12.6,106.7,37.8c31.2,25.2,50.7,57.5,58.5,97c0.9,6.4,1.7,12.5,2.4,18.2
			c0.7,5.7,1,11.1,1,16.2C1475.4,853,1458.9,892.6,1425.8,925.6z"/>
	</g>
	<g>
		<path fill="#282E69" d="M144.8,1060.2H92.5v138h7v-60h45.2c27.7,0,44.3-18,44.3-39C189.1,1078.2,172.9,1060.2,144.8,1060.2z
			 M144.8,1132.2H99.5v-66h45.3c22.4,0,36.8,13.9,36.8,33S167.2,1132.2,144.8,1132.2z M407.9,1099.3c0-25.2-20.3-39.1-44.9-39.1
			h-52.4v138h7v-60h36.5l46.3,60h9.5l-47-59.6C387.6,1138.6,407.9,1124.6,407.9,1099.3z M317.5,1132.2v-66h45.1
			c22.3,0,36.9,13.9,36.9,32.9c0,19-14.6,33.1-36.9,33.1H317.5z M601.1,1058c-44.3,0-72.4,31.5-72.4,71.5c0,40,28.1,71.5,72.4,71.5
			c44.1,0,72.4-31.5,72.4-71.5C673.5,1089.5,645.2,1058,601.1,1058z M601.1,1194.7c-39.5,0-64.4-27.8-64.4-65.3
			c0-37.9,24.9-65.3,64.4-65.3c39,0,64.4,27.4,64.4,65.3C665.5,1167,640.2,1194.7,601.1,1194.7z M852.8,1060.2h-52.2v138h7v-60h45.2
			c27.7,0,44.3-18,44.3-39C897.1,1078.2,880.9,1060.2,852.8,1060.2z M852.8,1132.2h-45.3v-66h45.3c22.4,0,36.8,13.9,36.8,33
			S875.2,1132.2,852.8,1132.2z M1018.5,1198.2h93v-6h-86v-62h84v-6h-84v-58h86v-6h-93V1198.2z M1334.9,1099.3
			c0-25.2-20.3-39.1-44.9-39.1h-52.4v138h7v-60h36.7l46.3,60h9.3l-47-59.6C1314.6,1138.6,1334.9,1124.6,1334.9,1099.3z
			 M1244.5,1132.2v-66h45.1c22.3,0,36.9,13.9,36.9,32.9c0,19-14.6,33.1-36.9,33.1H1244.5z M1447.5,1066.2h52v132h7v-132h51v-6h-110
			V1066.2z M1783.2,1060.2l-55.5,71.7l-55.5-71.7h-9.4l61.7,78.3v59.7h7v-59.7l61-78.3H1783.2z"/>
	</g>
	<g>
		<path fill-rule="evenodd" fill="#282E69" d="M1581.3,282.4c-6.1-1.1-11.4,0.2-19.7,2.1c0.6-1.9,2.2-5.3,2.6-5.8
			c1.2-1.5,1.7-2.8,1.4-3.6c-0.1-0.3,0.4-1.1,0.6-1.5c-0.5,0.1-1.6,0.4-1.9,0.2c-2.6-1.2-4,2.8-5.4,3.4c-2.3,0.9-5,0.7-6.9,2
			c-0.3,0.2-0.7,0.5-1.1,0.7c-5-10.8-14.9-23.1-34.3-26.3c-9.9-1.6-42.5,8.4-57.9,13c12.4,3.2,38.6,0.5,53.6,1.5
			c16.3,1.1,22.6,10.8,27.3,24.8c-0.5,1.1-1,2.2-1.5,3.5c-1.2,1.2-2,2.7-3.2,3.8c-0.9,0.8-2.3,1.2-3.1,2c-0.8,1.1-0.4,1.8,0.7,2.3
			c-0.7,0.9-0.1,1.4,1.2,1.6c-0.1,1.2,0.5,1.5,1.4,1.5c0.3,1.7,1.2,1.9,2.3,0.4l9-7.4c8.5-3.7,10.9-7.6,13.9-11
			c6.2-1.5,16.9,0.6,19.7,2.4c7.4,4.8,15.8,13.4,20.1,16C1594.6,295.5,1596,285,1581.3,282.4z M1946.6,195.8c-17-0.4-22.8,1-28,5.3
			c-5.8,4.8-3.3,12-4.9,15.8c-4.8-5-8.7-13.6-15.7-17c-8.2-3.9-25.9-0.5-47.9,7.7c21.2,3.7,43.1-8.4,59.7,13.8
			c1.6,2.1,0.7,7.1-2.3,8.8c-1.2,0.7-2.9,1.3-4.6,2.2c-1.3,0.6-1.8,1.1-1.9,1.4c-0.2,0.9,4,0.6,5.1,1.2c4-4.3,9.7-4.8,12-7.6
			c1.1-1.4,1.3-2.8,2.6-4.2c0.9-1,1.5-1.8,2.3-2.8c0.5-0.5,1.1-0.6,1.6-0.9c-0.5-0.1-1.1,0.1-1.6,0.2c-0.9-1.1-3.3-0.8-3.5-0.6
			C1922.2,208.1,1926.7,199,1946.6,195.8z M1358.5,388.6c-5.8,4.8-3.3,12-4.9,15.8c-4.8-5-8.7-13.6-15.7-17
			c-8.2-3.9-25.9-0.5-47.9,7.7c21.2,3.7,43.1-8.4,59.7,13.8c1.6,2.1,0.7,7.1-2.3,8.8c-1.2,0.7-2.9,1.3-4.6,2.2
			c-1.3,0.6-1.8,1.1-1.9,1.4c-0.2,0.9,4,0.6,5.1,1.2c4-4.3,9.7-4.8,12-7.6c1.1-1.4,1.3-2.8,2.6-4.2c0.9-1,1.5-1.8,2.3-2.8
			c0.5-0.5,1.1-0.6,1.6-0.9c-0.5-0.1-1.1,0.1-1.6,0.2c-0.9-1.1-3.3-0.8-3.5-0.6c2.6-10.7,7.1-19.9,27-23
			C1369.4,383,1363.6,384.4,1358.5,388.6z M1837.6,99.7c-8.8-15.1-9.4-10.9-24-5.3c-2.6,1-5.3,1.6-7.3,1.2c1.4-1.5,1.5-2.4,2.3-4
			c0.3-0.7,1.1-1.7,2.3-2.5c-0.2-0.3-2.1,0.9-2.8,0.9c-1.6-1.1-2.4-0.3-3.5,0.1c-1.3,0.7-2,2-3.3,2.7c-5-4.6-13.4-16.5-21.6-14.9
			c-1.9,0.4-4.1,1.2-6.6,2.9c0,0-10.8,8.1-19.2,12.6c-5,2.7-7.3,3.6,0.5,2.2c9.1-1.7,16.2-8.6,26.2-8.2c5.6,0.2,12.7,2.2,16.7,9.8
			c0,0-3.6,7.3-9,4.6c1.2,1.4,1.9,2.4,6.3,2.2c-0.8,0.8-4.2,0.3-3.9,0.4c0,0,2.4,1.3,5.1,0.3c3.3,1.4,7.6-1,8.8-4
			c0,0,6.8,0,14.4-1.2c9.2-1.5,6.6-2.6,13,4.3c2.5,2.7,3.7,4.5,5.3,6.2c16.1,16.6,12,7.7,3.9-4.5
			C1840.1,103.9,1839,102.1,1837.6,99.7z"/>
	</g>
	<g>
		<path fill="#282E69" d="M1844.4,717.4c0-10.4-73.1-18.7-163.2-18.7s-163.2,8.4-163.2,18.7c0,0.6,0.8,1.8,0.8,1.8h0.2
			c0,0,0,0.1,0.1,0.1c0,0,0,0,0.1,0.1c0.5,0.7,2.7,3.3,3,5.1c0.4,2,2.3,7.4,9.3,9.5v243.3h11.6h276.4v224h12V733.9
			c6.7-2,8.6-7.5,9-9.5c0.4-1.7,2.5-4.4,3-5.1c0,0,0,0,0.1-0.1c0,0,0.1-0.1,0.1-0.1h0C1844.2,718.6,1844.4,718,1844.4,717.4z
			 M1559.5,768.7c-1.7,0.2-3.4,0.5-5,0.7v-12.3c0-5.7,2.5-8.9,2.5-8.9s2.5,0.3,2.5,6.1V768.7z M1609.5,751.4c0-6.3,4.5-9.1,4.5-9.1
			s4.5,1.1,4.5,7.5V765c-3.1,0.1-6.1,0.3-9,0.4V751.4z M1634.5,827.8c-7.8,0.2-15.5,0.5-23,0.7v-23.4c0-10.6,11.5-15.1,11.5-15.1
			s11.5,1.9,11.5,12.5V827.8z M1686.5,763c-1.7,0-3.3,0-5,0c-1.7,0-3.3,0-5,0v-14c0-6,5-7.8,5-7.8s5,1.8,5,7.8V763z M1751.5,828.5
			c-7.5-0.3-15.2-0.5-23-0.7v-25.3c0-10.6,11.5-12.5,11.5-12.5s11.5,4.5,11.5,15.1V828.5z M1753.5,765.5c-2.9-0.2-5.9-0.3-9-0.4
			v-15.2c0-6.3,4.5-7.5,4.5-7.5s4.5,2.7,4.5,9.1V765.5z M1808.5,769.5c-1.6-0.2-3.3-0.5-5-0.7v-14.4c0-5.7,2.5-6.1,2.5-6.1
			s2.5,3.2,2.5,8.9V769.5z"/>
		<path fill="#282E69" d="M1548.5,519.8c0,0-0.2,2.7,3,2.8v51.2c5.1-0.7,10.8-1.4,16.9-2c-0.3,0-0.6,0.1-0.9,0.1v-31.6
			c0-6,3.4-11.9,7.5-13.2c4.1-1.3,7.5,2.5,7.5,8.5v34.8c-0.2,0-0.3,0-0.5,0c9.6-0.8,20.1-1.4,31.3-2c-0.2,0-0.5,0-0.7,0v-35.1
			c0-6.1,4.7-11.5,10.5-12.1c5.8-0.5,10.5,4,10.5,10.1v36.2c11.5-0.4,23.6-0.6,36-0.7v-35.7c0-5.3,3.5-10,8.6-11.3
			c7.6-1.8,14.4,3.9,14.4,11.2V567c12.4,0.1,24.5,0.3,36,0.7v-36.2c0-6.1,4.7-10.7,10.5-10.1c5.8,0.5,10.5,5.9,10.5,12.1v35.1
			c-0.2,0-0.5,0-0.7,0c11.2,0.5,21.6,1.2,31.2,2c-0.2,0-0.3,0-0.5,0v-34.8c0-6,3.4-9.8,7.5-8.5c4.1,1.3,7.5,7.2,7.5,13.2v31.6
			c-0.3,0-0.6-0.1-0.9-0.1c6.1,0.6,11.8,1.3,16.9,2v-51.2c3.2-0.1,3-2.8,3-2.8s6.9-3.4,8.2-8.2c0.1-0.3,0.2-0.6,0.2-1
			c0-10.1-63.1-18.2-140.9-18.2c-77.8,0-140.9,8.2-140.9,18.2c0,0.3,0.1,0.6,0.2,1C1541.7,516.4,1548.5,519.8,1548.5,519.8z"/>
		<path fill="#282E69" d="M1785.4,494.4l-27.9-82.1v-20.8l-3.3-4.2h-5.2l-64.3-189.5c4.5-1.4,7.9-5.5,7.9-10.5
			c0-5.4-3.9-9.9-9.1-10.8v-9.2l4.7-6.1l-1.3-29.6l-3.6-3.5h-0.3c1.3-0.6,2.1-1.8,2.1-3.3c0-1.2-0.7-2.3-1.6-2.9V85.2h-4V122
			c-1,0.6-1.6,1.7-1.6,2.9c0,1.5,0.9,2.7,2.1,3.3h-0.3l-3.6,3.4l-1.3,29.4l4.7,6v9c-5.1,0.9-9,5.4-9,10.8c0,5,3.3,9.1,7.9,10.5
			l-64.1,189.8h-5.4l-3.3,4.2v20.8l-27.9,82.1c25.9-3.6,62.9-5.8,103.9-5.8C1722.5,488.6,1759.5,490.8,1785.4,494.4z M1673.5,380.5
			l8-4.6l8,4.6v31.7h-16V380.5z"/>
		<path fill="#282E69" d="M1627,629.5c-5.8,0.3-10.5,5.7-10.5,12.1v35.4c6.8-0.3,13.8-0.6,21-0.9v-35.6
			C1637.5,634.2,1632.8,629.2,1627,629.5z"/>
		<path fill="#282E69" d="M1693.5,676.4v-36.9c0-5.5-3.7-10.6-9.1-11.8c-7.9-1.9-14.9,4.1-14.9,11.7v37.1c4,0,8-0.1,12-0.1
			C1685.6,676.4,1689.5,676.4,1693.5,676.4z"/>
		<path fill="#282E69" d="M1524.7,597.9c2.3,1.3,3.5,4.3,5.8,5v101c24.7-6.7,82.8-11.5,150.5-11.5c67.7,0,125.8,4.7,150.5,11.5v-101
			c2.3-0.7,3.5-3.6,5.8-5c2.3-1.3,5.1-4.8,5.2-8.3c0-9.3-72.3-16.8-161.5-16.8c-89.2,0-161.5,7.5-161.5,16.8
			C1519.6,593,1522.4,596.5,1524.7,597.9z M1812.5,633.1c0-12.8,3.5-24.6,8-23.1c4.4,1.5,8,15.7,8,28.4v57.3
			c-4.5-1.1-9.8-2.1-16-3.1V633.1z M1779.5,679.5c1.7,0.1,3.4,0.3,5,0.5v-35.5c0-5.7-2.2-10.7-5-12.3v-3.4c0-14.1,6-24.9,13.5-23.3
			c7.5,1.6,13.5,15.1,13.5,29.2v59c-8-1.1-17.1-2.1-27-2.9V679.5z M1721.5,627.9c0-14,11.4-25.8,24.1-25.2
			c12.7,0.6,21.9,13.4,21.9,27.5v58.7c-14.1-1-29.5-1.8-46-2.2V627.9z M1655.5,627.6c0-14.7,12.5-26.5,27.4-25.4
			c13,0.9,23.6,12.9,23.6,25.9v58.4c-8.3-0.1-16.8-0.2-25.5-0.2c-8.7,0-17.2,0.1-25.5,0.2V627.6z M1595.5,630.2
			c0-14,9.2-26.8,21.9-27.5c12.7-0.6,24.1,11.2,24.1,25.2v58.7c-16.5,0.5-31.9,1.2-46,2.2V630.2z M1556.5,634.6
			c0-14.1,6-27.6,13.5-29.2c7.5-1.6,13.5,9.2,13.5,23.3v3.4c-2.8,1.6-5,6.7-5,12.3V680c1.6-0.2,3.3-0.3,5-0.5v11.1
			c-9.9,0.9-19,1.8-27,2.9V634.6z M1533.5,638.5c0-12.8,3.6-27,8-28.4c4.4-1.5,8,10.4,8,23.1v59.5c-6.2,1-11.5,2-16,3.1V638.5z"/>
		<path fill="#282E69" d="M1736,629.5c-5.8-0.3-10.5,4.7-10.5,11.1v35.6c7.2,0.2,14.2,0.5,21,0.9v-35.4
			C1746.5,635.3,1741.8,629.8,1736,629.5z"/>
	</g>
</g>
<g id="Layer_2">
	<g>
		<path fill="#282E69" d="M277.8,620.3c-36.3,0-69.5,9.6-99.8,28.9c-30.3,19.3-53.2,45.4-69.4,78.4v-95.3h-17v401h17V884.4
			c16.2,33,39.1,59.1,69.4,78.4c30.3,19.3,63.6,28.9,99.8,28.9c52.3,0,96.4-17.9,132.2-53.6c35.8-35.8,53.7-79.8,53.7-132
			c0-51.8-18.1-95.6-54.4-131.4C373.4,638.4,329.6,620.3,277.8,620.3z M397.9,925.6c-32.6,32.6-72.5,48.8-119.8,48.8
			c-43.1,0-82.1-15.6-117-46.8c-34.4-31.6-51.6-69-51.6-112.1v-19.9c0-44.9,16.7-82.5,50.2-112.8c33.5-30.3,73-45.4,118.4-45.4
			c46.8,0,86.5,16.5,119.1,49.5c33,32.6,49.6,72.2,49.6,119C446.8,853.2,430.5,893.1,397.9,925.6z M837.3,742.2l0.7,1h17.7
			c-6.9-18.8-16-35.7-27.5-50.8c-11.5-15.1-24.7-28-39.9-38.8c-15.1-10.8-31.9-19-50.2-24.7c-18.3-5.7-37.4-8.6-57.1-8.6
			c-51.8,0-95.8,18.1-132,54.3c-35.7,35.7-53.6,79.4-53.6,131.2c0,51.7,17.9,95.7,53.6,131.9c36.2,35.7,80.2,53.6,132,53.6
			c39.4,0,75.2-11.2,107.2-33.7c31.6-22.4,54.1-52.2,67.4-89.3h-17.5c-12.9,32.1-33.8,57.8-62.7,77.1c-28.5,19.3-60,28.9-94.4,28.9
			c-47.3,0-87.3-16.3-119.9-48.9c-32.6-32.6-48.9-72.5-48.9-119.8c0-22,4.1-43.1,12.4-63.3H837.3z M594.4,660.6
			c26.2-15.6,55.1-23.4,86.7-23.4c31.7,0,60.6,7.8,86.7,23.4c26.2,15.6,46.8,37.1,61.9,64.6H533.1
			C547.8,697.7,568.2,676.2,594.4,660.6z M1139.5,652.9c-28.9-22-61.6-33-98.3-33c-31.6,0-60.4,7.9-86.3,23.7
			c-25.9,15.8-45.7,38.2-59.5,67.1v-77.5h-17v345h17V784.3c0-41.7,14-76.6,41.9-104.5c28.4-28.4,63-42.6,103.8-42.6
			c37.6,0,70.3,12.6,98.3,37.8V652.9z M1475.5,633.2v94.3c-15.7-33-38.7-59.1-68.9-78.4c-30.3-19.3-63.6-28.9-99.8-28.9
			c-51.9,0-95.9,18.1-132.2,54.3c-35.8,35.8-53.7,79.6-53.7,131.4c0,51.8,17.9,95.8,53.7,132c36.2,35.8,80.3,53.6,132.2,53.6
			c36.2,0,69.5-9.6,99.8-28.9c30.3-19.3,53.2-45.4,68.9-78.4v92.8l17,0.7V633.2H1475.5z M1425.8,925.6
			c-33.5,32.6-73.2,48.8-119.1,48.8c-47.3,0-87.2-16.3-119.8-48.8c-32.6-32.5-48.9-72.4-48.9-119.7c0-47.2,16.3-87.1,48.9-119.7
			c32.6-32.5,72.5-48.8,119.8-48.8c40.4,0,75.9,12.6,106.7,37.8c31.2,25.2,50.7,57.5,58.5,97c0.9,6.4,1.7,12.5,2.4,18.2
			c0.7,5.7,1,11.1,1,16.2C1475.4,853,1458.9,892.6,1425.8,925.6z"/>
	</g>
	<g>
		<path fill="#282E69" d="M144.8,1060.2H92.5v138h7v-60h45.2c27.7,0,44.3-18,44.3-39C189.1,1078.2,172.9,1060.2,144.8,1060.2z
			 M144.8,1132.2H99.5v-66h45.3c22.4,0,36.8,13.9,36.8,33S167.2,1132.2,144.8,1132.2z M407.9,1099.3c0-25.2-20.3-39.1-44.9-39.1
			h-52.4v138h7v-60h36.5l46.3,60h9.5l-47-59.6C387.6,1138.6,407.9,1124.6,407.9,1099.3z M317.5,1132.2v-66h45.1
			c22.3,0,36.9,13.9,36.9,32.9c0,19-14.6,33.1-36.9,33.1H317.5z M601.1,1058c-44.3,0-72.4,31.5-72.4,71.5c0,40,28.1,71.5,72.4,71.5
			c44.1,0,72.4-31.5,72.4-71.5C673.5,1089.5,645.2,1058,601.1,1058z M601.1,1194.7c-39.5,0-64.4-27.8-64.4-65.3
			c0-37.9,24.9-65.3,64.4-65.3c39,0,64.4,27.4,64.4,65.3C665.5,1167,640.2,1194.7,601.1,1194.7z M852.8,1060.2h-52.2v138h7v-60h45.2
			c27.7,0,44.3-18,44.3-39C897.1,1078.2,880.9,1060.2,852.8,1060.2z M852.8,1132.2h-45.3v-66h45.3c22.4,0,36.8,13.9,36.8,33
			S875.2,1132.2,852.8,1132.2z M1018.5,1198.2h93v-6h-86v-62h84v-6h-84v-58h86v-6h-93V1198.2z M1334.9,1099.3
			c0-25.2-20.3-39.1-44.9-39.1h-52.4v138h7v-60h36.7l46.3,60h9.3l-47-59.6C1314.6,1138.6,1334.9,1124.6,1334.9,1099.3z
			 M1244.5,1132.2v-66h45.1c22.3,0,36.9,13.9,36.9,32.9c0,19-14.6,33.1-36.9,33.1H1244.5z M1447.5,1066.2h52v132h7v-132h51v-6h-110
			V1066.2z M1783.2,1060.2l-55.5,71.7l-55.5-71.7h-9.4l61.7,78.3v59.7h7v-59.7l61-78.3H1783.2z"/>
	</g>
	<g>
		<path fill-rule="evenodd" fill="#282E69" d="M1581.3,282.4c-6.1-1.1-11.4,0.2-19.7,2.1c0.6-1.9,2.2-5.3,2.6-5.8
			c1.2-1.5,1.7-2.8,1.4-3.6c-0.1-0.3,0.4-1.1,0.6-1.5c-0.5,0.1-1.6,0.4-1.9,0.2c-2.6-1.2-4,2.8-5.4,3.4c-2.3,0.9-5,0.7-6.9,2
			c-0.3,0.2-0.7,0.5-1.1,0.7c-5-10.8-14.9-23.1-34.3-26.3c-9.9-1.6-42.5,8.4-57.9,13c12.4,3.2,38.6,0.5,53.6,1.5
			c16.3,1.1,22.6,10.8,27.3,24.8c-0.5,1.1-1,2.2-1.5,3.5c-1.2,1.2-2,2.7-3.2,3.8c-0.9,0.8-2.3,1.2-3.1,2c-0.8,1.1-0.4,1.8,0.7,2.3
			c-0.7,0.9-0.1,1.4,1.2,1.6c-0.1,1.2,0.5,1.5,1.4,1.5c0.3,1.7,1.2,1.9,2.3,0.4l9-7.4c8.5-3.7,10.9-7.6,13.9-11
			c6.2-1.5,16.9,0.6,19.7,2.4c7.4,4.8,15.8,13.4,20.1,16C1594.6,295.5,1596,285,1581.3,282.4z M1946.6,195.8c-17-0.4-22.8,1-28,5.3
			c-5.8,4.8-3.3,12-4.9,15.8c-4.8-5-8.7-13.6-15.7-17c-8.2-3.9-25.9-0.5-47.9,7.7c21.2,3.7,43.1-8.4,59.7,13.8
			c1.6,2.1,0.7,7.1-2.3,8.8c-1.2,0.7-2.9,1.3-4.6,2.2c-1.3,0.6-1.8,1.1-1.9,1.4c-0.2,0.9,4,0.6,5.1,1.2c4-4.3,9.7-4.8,12-7.6
			c1.1-1.4,1.3-2.8,2.6-4.2c0.9-1,1.5-1.8,2.3-2.8c0.5-0.5,1.1-0.6,1.6-0.9c-0.5-0.1-1.1,0.1-1.6,0.2c-0.9-1.1-3.3-0.8-3.5-0.6
			C1922.2,208.1,1926.7,199,1946.6,195.8z M1358.5,388.6c-5.8,4.8-3.3,12-4.9,15.8c-4.8-5-8.7-13.6-15.7-17
			c-8.2-3.9-25.9-0.5-47.9,7.7c21.2,3.7,43.1-8.4,59.7,13.8c1.6,2.1,0.7,7.1-2.3,8.8c-1.2,0.7-2.9,1.3-4.6,2.2
			c-1.3,0.6-1.8,1.1-1.9,1.4c-0.2,0.9,4,0.6,5.1,1.2c4-4.3,9.7-4.8,12-7.6c1.1-1.4,1.3-2.8,2.6-4.2c0.9-1,1.5-1.8,2.3-2.8
			c0.5-0.5,1.1-0.6,1.6-0.9c-0.5-0.1-1.1,0.1-1.6,0.2c-0.9-1.1-3.3-0.8-3.5-0.6c2.6-10.7,7.1-19.9,27-23
			C1369.4,383,1363.6,384.4,1358.5,388.6z M1837.6,99.7c-8.8-15.1-9.4-10.9-24-5.3c-2.6,1-5.3,1.6-7.3,1.2c1.4-1.5,1.5-2.4,2.3-4
			c0.3-0.7,1.1-1.7,2.3-2.5c-0.2-0.3-2.1,0.9-2.8,0.9c-1.6-1.1-2.4-0.3-3.5,0.1c-1.3,0.7-2,2-3.3,2.7c-5-4.6-13.4-16.5-21.6-14.9
			c-1.9,0.4-4.1,1.2-6.6,2.9c0,0-10.8,8.1-19.2,12.6c-5,2.7-7.3,3.6,0.5,2.2c9.1-1.7,16.2-8.6,26.2-8.2c5.6,0.2,12.7,2.2,16.7,9.8
			c0,0-3.6,7.3-9,4.6c1.2,1.4,1.9,2.4,6.3,2.2c-0.8,0.8-4.2,0.3-3.9,0.4c0,0,2.4,1.3,5.1,0.3c3.3,1.4,7.6-1,8.8-4
			c0,0,6.8,0,14.4-1.2c9.2-1.5,6.6-2.6,13,4.3c2.5,2.7,3.7,4.5,5.3,6.2c16.1,16.6,12,7.7,3.9-4.5
			C1840.1,103.9,1839,102.1,1837.6,99.7z"/>
	</g>
	<g>
		<path fill="#282E69" d="M1844.4,717.4c0-10.4-73.1-18.7-163.2-18.7s-163.2,8.4-163.2,18.7c0,0.6,0.8,1.8,0.8,1.8h0.2
			c0,0,0,0.1,0.1,0.1c0,0,0,0,0.1,0.1c0.5,0.7,2.7,3.3,3,5.1c0.4,2,2.3,7.4,9.3,9.5v243.3h11.6h276.4v224h12V733.9
			c6.7-2,8.6-7.5,9-9.5c0.4-1.7,2.5-4.4,3-5.1c0,0,0,0,0.1-0.1c0,0,0.1-0.1,0.1-0.1h0C1844.2,718.6,1844.4,718,1844.4,717.4z
			 M1559.5,768.7c-1.7,0.2-3.4,0.5-5,0.7v-12.3c0-5.7,2.5-8.9,2.5-8.9s2.5,0.3,2.5,6.1V768.7z M1609.5,751.4c0-6.3,4.5-9.1,4.5-9.1
			s4.5,1.1,4.5,7.5V765c-3.1,0.1-6.1,0.3-9,0.4V751.4z M1634.5,827.8c-7.8,0.2-15.5,0.5-23,0.7v-23.4c0-10.6,11.5-15.1,11.5-15.1
			s11.5,1.9,11.5,12.5V827.8z M1686.5,763c-1.7,0-3.3,0-5,0c-1.7,0-3.3,0-5,0v-14c0-6,5-7.8,5-7.8s5,1.8,5,7.8V763z M1751.5,828.5
			c-7.5-0.3-15.2-0.5-23-0.7v-25.3c0-10.6,11.5-12.5,11.5-12.5s11.5,4.5,11.5,15.1V828.5z M1753.5,765.5c-2.9-0.2-5.9-0.3-9-0.4
			v-15.2c0-6.3,4.5-7.5,4.5-7.5s4.5,2.7,4.5,9.1V765.5z M1808.5,769.5c-1.6-0.2-3.3-0.5-5-0.7v-14.4c0-5.7,2.5-6.1,2.5-6.1
			s2.5,3.2,2.5,8.9V769.5z"/>
		<path fill="#282E69" d="M1548.5,519.8c0,0-0.2,2.7,3,2.8v51.2c5.1-0.7,10.8-1.4,16.9-2c-0.3,0-0.6,0.1-0.9,0.1v-31.6
			c0-6,3.4-11.9,7.5-13.2c4.1-1.3,7.5,2.5,7.5,8.5v34.8c-0.2,0-0.3,0-0.5,0c9.6-0.8,20.1-1.4,31.3-2c-0.2,0-0.5,0-0.7,0v-35.1
			c0-6.1,4.7-11.5,10.5-12.1c5.8-0.5,10.5,4,10.5,10.1v36.2c11.5-0.4,23.6-0.6,36-0.7v-35.7c0-5.3,3.5-10,8.6-11.3
			c7.6-1.8,14.4,3.9,14.4,11.2V567c12.4,0.1,24.5,0.3,36,0.7v-36.2c0-6.1,4.7-10.7,10.5-10.1c5.8,0.5,10.5,5.9,10.5,12.1v35.1
			c-0.2,0-0.5,0-0.7,0c11.2,0.5,21.6,1.2,31.2,2c-0.2,0-0.3,0-0.5,0v-34.8c0-6,3.4-9.8,7.5-8.5c4.1,1.3,7.5,7.2,7.5,13.2v31.6
			c-0.3,0-0.6-0.1-0.9-0.1c6.1,0.6,11.8,1.3,16.9,2v-51.2c3.2-0.1,3-2.8,3-2.8s6.9-3.4,8.2-8.2c0.1-0.3,0.2-0.6,0.2-1
			c0-10.1-63.1-18.2-140.9-18.2c-77.8,0-140.9,8.2-140.9,18.2c0,0.3,0.1,0.6,0.2,1C1541.7,516.4,1548.5,519.8,1548.5,519.8z"/>
		<path fill="#282E69" d="M1785.4,494.4l-27.9-82.1v-20.8l-3.3-4.2h-5.2l-64.3-189.5c4.5-1.4,7.9-5.5,7.9-10.5
			c0-5.4-3.9-9.9-9.1-10.8v-9.2l4.7-6.1l-1.3-29.6l-3.6-3.5h-0.3c1.3-0.6,2.1-1.8,2.1-3.3c0-1.2-0.7-2.3-1.6-2.9V85.2h-4V122
			c-1,0.6-1.6,1.7-1.6,2.9c0,1.5,0.9,2.7,2.1,3.3h-0.3l-3.6,3.4l-1.3,29.4l4.7,6v9c-5.1,0.9-9,5.4-9,10.8c0,5,3.3,9.1,7.9,10.5
			l-64.1,189.8h-5.4l-3.3,4.2v20.8l-27.9,82.1c25.9-3.6,62.9-5.8,103.9-5.8C1722.5,488.6,1759.5,490.8,1785.4,494.4z M1673.5,380.5
			l8-4.6l8,4.6v31.7h-16V380.5z"/>
		<path fill="#282E69" d="M1627,629.5c-5.8,0.3-10.5,5.7-10.5,12.1v35.4c6.8-0.3,13.8-0.6,21-0.9v-35.6
			C1637.5,634.2,1632.8,629.2,1627,629.5z"/>
		<path fill="#282E69" d="M1693.5,676.4v-36.9c0-5.5-3.7-10.6-9.1-11.8c-7.9-1.9-14.9,4.1-14.9,11.7v37.1c4,0,8-0.1,12-0.1
			C1685.6,676.4,1689.5,676.4,1693.5,676.4z"/>
		<path fill="#282E69" d="M1524.7,597.9c2.3,1.3,3.5,4.3,5.8,5v101c24.7-6.7,82.8-11.5,150.5-11.5c67.7,0,125.8,4.7,150.5,11.5v-101
			c2.3-0.7,3.5-3.6,5.8-5c2.3-1.3,5.1-4.8,5.2-8.3c0-9.3-72.3-16.8-161.5-16.8c-89.2,0-161.5,7.5-161.5,16.8
			C1519.6,593,1522.4,596.5,1524.7,597.9z M1812.5,633.1c0-12.8,3.5-24.6,8-23.1c4.4,1.5,8,15.7,8,28.4v57.3
			c-4.5-1.1-9.8-2.1-16-3.1V633.1z M1779.5,679.5c1.7,0.1,3.4,0.3,5,0.5v-35.5c0-5.7-2.2-10.7-5-12.3v-3.4c0-14.1,6-24.9,13.5-23.3
			c7.5,1.6,13.5,15.1,13.5,29.2v59c-8-1.1-17.1-2.1-27-2.9V679.5z M1721.5,627.9c0-14,11.4-25.8,24.1-25.2
			c12.7,0.6,21.9,13.4,21.9,27.5v58.7c-14.1-1-29.5-1.8-46-2.2V627.9z M1655.5,627.6c0-14.7,12.5-26.5,27.4-25.4
			c13,0.9,23.6,12.9,23.6,25.9v58.4c-8.3-0.1-16.8-0.2-25.5-0.2c-8.7,0-17.2,0.1-25.5,0.2V627.6z M1595.5,630.2
			c0-14,9.2-26.8,21.9-27.5c12.7-0.6,24.1,11.2,24.1,25.2v58.7c-16.5,0.5-31.9,1.2-46,2.2V630.2z M1556.5,634.6
			c0-14.1,6-27.6,13.5-29.2c7.5-1.6,13.5,9.2,13.5,23.3v3.4c-2.8,1.6-5,6.7-5,12.3V680c1.6-0.2,3.3-0.3,5-0.5v11.1
			c-9.9,0.9-19,1.8-27,2.9V634.6z M1533.5,638.5c0-12.8,3.6-27,8-28.4c4.4-1.5,8,10.4,8,23.1v59.5c-6.2,1-11.5,2-16,3.1V638.5z"/>
		<path fill="#282E69" d="M1736,629.5c-5.8-0.3-10.5,4.7-10.5,11.1v35.6c7.2,0.2,14.2,0.5,21,0.9v-35.4
			C1746.5,635.3,1741.8,629.8,1736,629.5z"/>
	</g>
</g>
</svg>
