<?xml version="1.0" encoding="utf-8"?>
<!-- Generator: Adobe Illustrator 24.0.0, SVG Export Plug-In . SVG Version: 6.00 Build 0)  -->
<svg version="1.1" id="Layer_1" xmlns="http://www.w3.org/2000/svg" xmlns:xlink="http://www.w3.org/1999/xlink" x="0px" y="0px"
	 viewBox="0 0 1932.26 1206.78" style="enable-background:new 0 0 1932.26 1206.78;" xml:space="preserve">
<style type="text/css">
  .st0 { fill: currentColor; }
  .st1 { fill-rule:evenodd; clip-rule:evenodd; fill: currentColor; }
</style>

<g>
	<path class="st0" d="M225.5,575.22c-36.26,0-69.52,9.63-99.81,28.89c-30.28,19.26-53.24,45.39-68.83,78.4V587.6H39.66v400.96h17.21
		V839.32c15.59,33.01,38.55,59.15,68.83,78.4c30.29,19.26,63.55,28.88,99.81,28.88c52.31,0,96.36-17.88,132.16-53.64
		c35.79-35.76,53.69-79.78,53.69-132.05c0-51.81-18.13-95.6-54.38-131.36C321.18,593.34,277.35,575.22,225.5,575.22z M345.27,880.58
		c-32.59,32.56-72.51,48.83-119.77,48.83c-43.14,0-82.15-15.58-117.01-46.77c-34.42-31.64-51.62-69-51.62-112.1V750.6
		c0-44.93,16.75-82.53,50.25-112.79c33.49-30.26,72.96-45.39,118.39-45.39c46.81,0,86.49,16.51,119.08,49.52
		c33.04,32.56,49.56,72.21,49.56,118.98C394.14,808.14,377.84,848.03,345.27,880.58z M785.09,697.64l0.69,0.69h17.9
		c-6.88-18.8-16.07-35.76-27.53-50.89c-11.48-15.13-24.78-28.08-39.92-38.86c-15.14-10.77-31.9-19.02-50.25-24.76
		c-18.36-5.73-37.41-8.6-57.13-8.6c-51.86,0-95.91,18.12-132.16,54.33C460.9,665.32,443,709.11,443,760.91
		c0,51.82,17.9,95.83,53.69,132.05c36.24,35.76,80.3,53.64,132.16,53.64c39.46,0,75.25-11.24,107.38-33.7
		c31.66-22.46,54.14-52.27,67.45-89.41h-17.9c-12.85,32.1-33.73,57.77-62.64,77.03c-28.46,19.26-59.88,28.89-94.3,28.89
		c-47.27,0-87.19-16.27-119.77-48.83c-32.59-32.55-48.87-72.44-48.87-119.67c0-22.01,4.13-43.09,12.39-63.27H785.09z M542.12,615.8
		c26.16-15.58,55.06-23.38,86.73-23.38s60.57,7.8,86.73,23.38c26.16,15.59,46.8,37.14,61.95,64.65H480.86
		C495.54,652.94,515.96,631.39,542.12,615.8z M1087.25,608.23c-28.91-22.01-61.72-33.01-98.43-33.01
		c-31.66,0-60.46,7.91-86.38,23.73c-25.93,15.82-45.77,38.17-59.54,67.06v-77.72H825.7v345.25h17.21V739.59
		c0-41.72,13.99-76.57,41.99-104.54c28.45-28.42,63.09-42.64,103.94-42.64c37.62,0,70.43,12.62,98.43,37.83V608.23z M1423.15,588.29
		v94.22c-15.61-33.01-38.54-59.15-68.83-78.4c-30.29-19.26-63.56-28.89-99.81-28.89c-51.86,0-95.91,18.12-132.16,54.33
		c-35.79,35.76-53.69,79.55-53.69,131.36c0,51.82,17.9,95.83,53.69,132.05c36.24,35.76,80.3,53.64,132.16,53.64
		c36.24,0,69.52-9.63,99.81-28.88c30.29-19.26,53.23-45.39,68.83-78.4v92.85l17.21,0.69V588.29H1423.15z M1373.6,880.58
		c-33.5,32.56-73.2,48.83-119.08,48.83c-47.27,0-87.19-16.27-119.77-48.83c-32.59-32.55-48.87-72.44-48.87-119.67
		c0-47.22,16.28-87.11,48.87-119.67c32.58-32.55,72.5-48.83,119.77-48.83c40.37,0,75.94,12.62,106.69,37.83
		c31.2,25.22,50.7,57.55,58.51,96.97c0.91,6.43,1.72,12.5,2.41,18.23c0.69,5.74,1.03,11.12,1.03,16.16
		C1423.15,807.92,1406.63,847.57,1373.6,880.58z"/>
</g>
<g>
	<path class="st0" d="M92.39,1015.2H39.66v138.2h7.31v-59.88h45.43c27.85,0,44.52-18.03,44.52-39.16
		C136.91,1033.23,120.7,1015.2,92.39,1015.2z M92.16,1087.31h-45.2v-65.89h45.2c22.37,0,36.76,13.88,36.76,32.95
		S114.54,1087.31,92.16,1087.31z M355.45,1054.36c0-25.28-20.32-39.16-44.97-39.16h-52.51v138.2h7.31v-59.67h36.53l46.34,59.67h9.36
		l-47.03-59.67C335.13,1093.73,355.45,1079.64,355.45,1054.36z M265.27,1087.51v-66.1h45.2c22.37,0,36.98,13.88,36.98,32.95
		s-14.61,33.15-36.98,33.15H265.27z M548.88,1012.92c-44.29,0-72.37,31.5-72.37,71.48c0,39.99,28.08,71.48,72.37,71.48
		c44.06,0,72.37-31.49,72.37-71.48C621.25,1044.42,592.94,1012.92,548.88,1012.92z M548.88,1149.67
		c-39.49,0-64.38-27.77-64.38-65.27c0-37.92,24.88-65.27,64.38-65.27c39.04,0,64.38,27.35,64.38,65.27
		C613.26,1121.91,587.92,1149.67,548.88,1149.67z M800.59,1015.2h-52.74v138.2h7.31v-59.88h45.43c27.85,0,44.52-18.03,44.52-39.16
		C845.1,1033.23,828.89,1015.2,800.59,1015.2z M800.36,1087.31h-45.2v-65.89h45.2c22.37,0,36.76,13.88,36.76,32.95
		S822.73,1087.31,800.36,1087.31z M966.16,1153.4h93.15v-6.22h-85.84v-61.75h84.24v-6.22h-84.24v-57.81h85.84v-6.22h-93.15V1153.4z
		 M1282.64,1054.36c0-25.28-20.32-39.16-44.97-39.16h-52.51v138.2h7.31v-59.67h36.53l46.34,59.67h9.36l-47.03-59.67
		C1262.32,1093.73,1282.64,1079.64,1282.64,1054.36z M1192.46,1087.51v-66.1h45.2c22.37,0,36.98,13.88,36.98,32.95
		s-14.61,33.15-36.98,33.15H1192.46z M1395.25,1021.42h51.37v131.99h7.31v-131.99h51.59v-6.22h-110.27V1021.42z M1730.91,1015.2
		l-55.48,71.69l-55.48-71.69h-9.36l61.18,78.32v59.88h7.31v-59.88l61.18-78.32H1730.91z"/>
</g>
<g>
	<path class="st1" d="M1529.02,237.35c-6.14-1.08-11.45,0.21-19.71,2.11c0.59-1.89,2.19-5.27,2.62-5.83
		c1.2-1.51,1.66-2.79,1.45-3.63c-0.07-0.28,0.36-1.1,0.63-1.47c-0.52,0.13-1.65,0.36-1.92,0.24c-2.63-1.19-3.96,2.84-5.42,3.42
		c-2.29,0.9-4.96,0.67-6.93,1.98c-0.35,0.22-0.71,0.45-1.08,0.69c-5.02-10.75-14.95-23.15-34.33-26.31
		c-9.91-1.63-42.48,8.4-57.93,13.04c12.41,3.24,38.6,0.51,53.63,1.52c16.25,1.09,22.6,10.75,27.26,24.8c-0.52,1.07-1,2.23-1.5,3.5
		c-1.24,1.16-1.96,2.65-3.23,3.8c-0.86,0.79-2.26,1.25-3.14,2.03c-0.78,1.09-0.42,1.84,0.72,2.35c-0.72,0.87-0.06,1.35,1.23,1.64
		c-0.07,1.16,0.49,1.51,1.35,1.49c0.3,1.74,1.18,1.87,2.31,0.43l9.02-7.37c8.5-3.72,10.89-7.64,13.9-11
		c6.24-1.46,16.87,0.59,19.68,2.4c7.44,4.82,15.8,13.37,20.09,15.95C1542.34,250.49,1543.7,239.94,1529.02,237.35z M1894.32,150.78
		c-16.99-0.37-22.85,1.02-27.96,5.27c-5.79,4.81-3.33,12-4.91,15.78c-4.78-4.98-8.66-13.64-15.66-17c-8.18-3.93-25.9-0.5-47.89,7.68
		c21.2,3.71,43.05-8.36,59.74,13.77c1.56,2.07,0.74,7.14-2.26,8.85c-1.22,0.7-2.89,1.35-4.59,2.17c-1.29,0.64-1.82,1.07-1.87,1.36
		c-0.15,0.88,4.01,0.56,5.05,1.15c4.05-4.3,9.71-4.8,12.03-7.64c1.13-1.38,1.28-2.79,2.56-4.24c0.88-0.99,1.46-1.79,2.27-2.82
		c0.49-0.45,1.09-0.65,1.56-0.88c-0.5-0.08-1.06,0.06-1.56,0.18c-0.92-1.13-3.26-0.83-3.49-0.62
		C1869.93,163.05,1874.41,153.9,1894.32,150.78z M1306.23,343.55c-5.79,4.81-3.33,12-4.91,15.78c-4.78-4.98-8.66-13.64-15.66-17
		c-8.18-3.93-25.9-0.5-47.89,7.68c21.2,3.71,43.05-8.36,59.74,13.77c1.56,2.07,0.74,7.14-2.26,8.85c-1.22,0.7-2.89,1.35-4.59,2.17
		c-1.29,0.64-1.82,1.07-1.87,1.36c-0.15,0.89,4.01,0.56,5.06,1.16c4.05-4.3,9.71-4.8,12.02-7.64c1.13-1.38,1.28-2.79,2.56-4.24
		c0.88-1,1.46-1.79,2.27-2.82c0.49-0.45,1.1-0.65,1.56-0.88c-0.5-0.08-1.06,0.06-1.56,0.18c-0.92-1.13-3.26-0.83-3.49-0.62
		c2.6-10.73,7.08-19.88,26.99-23C1317.2,337.91,1311.34,339.3,1306.23,343.55z M1785.37,54.67c-8.75-15.14-9.36-10.88-24.03-5.33
		c-2.64,1-5.28,1.62-7.32,1.2c1.43-1.49,1.55-2.42,2.32-4c0.34-0.7,1.09-1.72,2.26-2.51c-0.17-0.35-2.06,0.94-2.79,0.94
		c-1.58-1.14-2.38-0.35-3.48,0.08c-1.28,0.7-2.03,1.99-3.32,2.69c-4.98-4.59-13.42-16.45-21.65-14.95
		c-1.88,0.35-4.09,1.21-6.64,2.87c0,0-10.84,8.13-19.19,12.59c-5.02,2.69-7.32,3.63,0.49,2.2c9.09-1.66,16.15-8.57,26.2-8.21
		c5.59,0.2,12.67,2.15,16.68,9.78c0,0-3.55,7.29-9.04,4.56c1.24,1.36,1.91,2.44,6.34,2.24c-0.77,0.84-4.24,0.26-3.86,0.38
		c0,0,2.42,1.32,5.07,0.27c3.28,1.41,7.57-1.02,8.75-3.98c0,0,6.79,0.03,14.39-1.25c9.15-1.53,6.58-2.57,13.01,4.32
		c2.48,2.65,3.68,4.5,5.27,6.15c16.05,16.64,11.96,7.67,3.91-4.52C1787.87,58.86,1786.75,57.06,1785.37,54.67z"/>
</g>
<path class="st1" d="M1791.43,674.15h0.02c0,0-0.04,0.05-0.07,0.09c-0.02,0.02-0.04,0.05-0.06,0.07c-0.54,0.66-2.66,3.32-3.03,5.06
	c-0.43,1.99-2.33,7.45-9.35,9.47v467.06h-11.64V932.41h-276.64l0,0h-11.64V688.83c-7.02-2.02-8.93-7.47-9.35-9.47
	c-0.37-1.73-2.49-4.39-3.03-5.06c-0.02-0.02-0.04-0.05-0.06-0.07c-0.03-0.03-0.07-0.09-0.07-0.09h0.01
	c-0.48-0.59-0.76-1.18-0.76-1.78c0-10.35,73.07-18.75,163.22-18.75s163.22,8.39,163.22,18.75
	C1792.19,672.97,1791.92,673.57,1791.43,674.15z M1507.3,708.88c0-6.26-2.73-6.63-2.73-6.63s-2.73,3.45-2.73,9.71v13.43
	c1.73-0.27,3.55-0.54,5.46-0.79V708.88z M1565.96,704.85c0-6.26-4.44-7.39-4.44-7.39s-4.44,2.69-4.44,8.95v13.87
	c2.9-0.16,5.87-0.3,8.89-0.44V704.85z M1582.02,757.32c0-10.68-11.61-12.6-11.61-12.6s-11.61,4.58-11.61,15.26v23.67
	c7.58-0.27,15.35-0.51,23.22-0.74V757.32z M1634.22,703.8c0-6.26-5.24-8.17-5.24-8.17s-5.24,1.91-5.24,8.17v14.7
	c1.74-0.01,3.49-0.01,5.24-0.01c1.76,0,3.5,0.01,5.24,0.01V703.8z M1675.92,757.32v25.58c7.88,0.23,15.64,0.48,23.22,0.74v-23.67
	c0-10.68-11.61-15.26-11.61-15.26S1675.92,746.64,1675.92,757.32z M1700.87,706.41c0-6.26-4.44-8.95-4.44-8.95s-4.44,1.13-4.44,7.39
	v14.99c3.01,0.14,5.99,0.28,8.89,0.44V706.41z M1756.11,711.96c0-6.26-2.73-9.71-2.73-9.71s-2.73,0.37-2.73,6.63v15.71
	c1.9,0.26,3.73,0.52,5.46,0.79V711.96z M1785.33,552.82c-2.29,1.35-3.52,4.27-5.8,4.96v101.07c-24.68-6.75-82.79-11.5-150.55-11.5
	c-67.76,0-125.87,4.74-150.55,11.5V557.79c-2.28-0.69-3.51-3.62-5.8-4.96c-2.29-1.35-5.12-4.85-5.25-8.28
	c0-9.28,72.35-16.8,161.6-16.8c89.25,0,161.6,7.52,161.6,16.8C1790.45,547.97,1787.62,551.47,1785.33,552.82z M1497.58,587.54
	c0-13.12-3.64-25.29-8.18-23.78c-4.55,1.52-8.28,16.14-8.28,29.27v58.92c4.59-1.12,10.1-2.19,16.46-3.18V587.54z M1530.87,634.78
	c-1.72,0.15-3.41,0.3-5.07,0.46v-36.01c0-5.73,2.19-10.87,5.07-12.51v-2.78c0-13.89-5.95-24.56-13.29-22.95
	c-7.34,1.6-13.29,14.88-13.29,28.76v58.05c7.9-1.07,16.8-2.04,26.58-2.89V634.78z M1589.02,582.84c0-14.07-11.4-25.88-24.13-25.25
	c-12.73,0.63-21.98,13.46-21.98,27.53v58.85c14.09-1.01,29.59-1.77,46.11-2.25V582.84z M1654.45,582.56
	c0-14.07-11.41-25.47-25.48-25.47c-14.07,0-25.48,11.41-25.48,25.47v58.82c8.3-0.15,16.81-0.23,25.48-0.23
	c8.67,0,17.17,0.08,25.48,0.23V582.56z M1715.04,585.13c0-14.07-9.25-26.9-21.98-27.53c-12.73-0.63-24.13,11.18-24.13,25.25v58.88
	c16.52,0.48,32.02,1.24,46.11,2.25V585.13z M1753.66,589.76c0-13.89-5.95-27.16-13.29-28.76c-7.34-1.6-13.29,9.07-13.29,22.95v2.78
	c2.87,1.63,5.07,6.78,5.07,12.51v36.01c-1.66-0.16-3.35-0.31-5.07-0.46v10.14c9.78,0.85,18.69,1.82,26.58,2.89V589.76z
	 M1776.82,593.04c0-13.12-3.73-27.75-8.28-29.27c-4.55-1.52-8.18,10.65-8.18,23.78v61.23c6.36,0.99,11.87,2.05,16.46,3.18V593.04z
	 M1683.39,583.97c5.93,0.29,10.73,5.84,10.73,12.39v36.21c-6.92-0.35-14.08-0.64-21.46-0.87v-36.4
	C1672.66,588.75,1677.46,583.68,1683.39,583.97z M1617.12,631.07V594.4c0-6.55,5.31-11.85,11.85-11.85
	c6.55,0,11.85,5.31,11.85,11.85v36.67c-3.92-0.03-7.86-0.05-11.85-0.05C1624.98,631.01,1621.04,631.04,1617.12,631.07z
	 M1574.56,583.97c5.92-0.29,10.73,4.78,10.73,11.32v36.4c-7.37,0.24-14.54,0.53-21.46,0.87v-36.21
	C1563.83,589.81,1568.63,584.26,1574.56,583.97z M1770.06,466.58c-1.38,4.83-8.26,8.24-8.26,8.24s0.16,2.72-3.01,2.79v51.13
	c-5.17-0.72-10.9-1.4-17.09-2.03c0.31,0.03,0.64,0.06,0.95,0.09v-31.55c0-6-3.37-11.91-7.52-13.18c-4.15-1.28-7.52,2.55-7.52,8.56
	v34.82c0.18,0.01,0.35,0.03,0.53,0.04c-9.68-0.78-20.24-1.46-31.51-2c0.24,0.01,0.49,0.02,0.73,0.03v-35.05
	c0-6.16-4.73-11.59-10.56-12.13c-5.83-0.54-10.56,4.02-10.56,10.18v36.15c-11.5-0.36-23.56-0.6-35.99-0.69v-35.89
	c0-6.23-5.05-11.28-11.28-11.28c-6.23,0-11.28,5.05-11.28,11.28v35.89c-12.44,0.09-24.49,0.32-35.99,0.69v-36.15
	c0-6.16-4.73-10.72-10.56-10.18c-5.83,0.54-10.56,5.97-10.56,12.13v35.05c0.24-0.01,0.49-0.02,0.73-0.03
	c-11.27,0.54-21.83,1.21-31.51,2c0.18-0.01,0.35-0.03,0.53-0.04v-34.82c0-6-3.37-9.83-7.52-8.56c-4.15,1.28-7.52,7.18-7.52,13.18
	v31.55c0.31-0.03,0.64-0.06,0.95-0.09c-6.19,0.63-11.93,1.3-17.1,2.03V477.6c-3.17-0.06-3.01-2.79-3.01-2.79s-6.87-3.4-8.26-8.24
	c-0.13-0.32-0.2-0.64-0.2-0.97c0-10.1,63.25-18.28,141.28-18.28c78.03,0,141.28,8.19,141.28,18.28
	C1770.26,465.94,1770.19,466.26,1770.06,466.58z M1525.62,449.22l27.74-82.11v-20.84l3.3-4.21h5.17l64-189.48
	c-4.52-1.36-7.84-5.51-7.84-10.47c0-5.39,3.89-9.85,9.01-10.79v-8.98l-4.7-6.01l1.31-29.38l3.55-3.43h0.34
	c-1.24-0.57-2.12-1.8-2.12-3.26c0-1.24,0.66-2.27,1.61-2.92V40.82h3.97v36.51c0.95,0.65,1.61,1.68,1.61,2.92
	c0,1.45-0.87,2.69-2.12,3.26h0.34l3.55,3.43l1.31,29.38l-4.7,6.01v8.98c5.12,0.94,9.01,5.4,9.01,10.79c0,4.97-3.32,9.11-7.84,10.47
	l64,189.48h5.16l3.3,4.21v20.84l27.74,82.11c-25.79-3.58-62.54-5.82-103.35-5.82C1588.16,443.4,1551.41,445.64,1525.62,449.22z
	 M1637.03,335.21l-8.05-4.61l-8.06,4.61v31.68h16.11V335.21z"/>
</svg>
