<?xml version="1.0" encoding="UTF-8"?>
<svg
  xmlns="http://www.w3.org/2000/svg"
  viewBox="0 0 680.3 929.9"
  class="icon icon-pera"
  role="img"
  aria-labelledby="pera-icon-title"
>
  <title id="pera-icon-title">Pera Property Icon</title>

  <!-- Top decorative / crest part -->
  <path
    fill="currentColor"
    d="M292.7,169.2c-4.6-0.8-8.6,0.2-14.8,1.6c0.4-1.4,1.6-4,2-4.4c0.9-1.1,1.2-2.1,1.1-2.7
      c-0.1-0.2,0.3-0.8,0.5-1.1c-0.4,0.1-1.2,0.3-1.4,0.2c-2-0.9-3,2.1-4.1,2.6c-1.7,0.7-3.7,0.5-5.2,1.5c-0.3,0.2-0.5,0.3-0.8,0.5
      c-3.8-8.1-11.2-17.4-25.7-19.7c-7.4-1.2-31.9,6.3-43.4,9.8c9.3,2.4,28.9,0.4,40.2,1.1c12.2,0.8,16.9,8.1,20.4,18.6
      c-0.4,0.8-0.8,1.7-1.1,2.6c-0.9,0.9-1.5,2-2.4,2.9c-0.6,0.6-1.7,0.9-2.4,1.5c-0.6,0.8-0.3,1.4,0.5,1.8c-0.5,0.7,0,1,0.9,1.2
      c-0.1,0.9,0.4,1.1,1,1.1c0.2,1.3,0.9,1.4,1.7,0.3l6.8-5.5c6.4-2.8,8.2-5.7,10.4-8.2c4.7-1.1,12.7,0.4,14.8,1.8
      c5.6,3.6,11.8,10,15.1,12C302.7,179.1,303.7,171.2,292.7,169.2z M566.6,104.3c-12.7-0.3-17.1,0.8-21,4c-4.3,3.6-2.5,9-3.7,11.8
      c-3.6-3.7-6.5-10.2-11.7-12.8c-6.1-2.9-19.4-0.4-35.9,5.8c15.9,2.8,32.3-6.3,44.8,10.3c1.2,1.6,0.6,5.4-1.7,6.6
      c-0.9,0.5-2.2,1-3.4,1.6c-1,0.5-1.4,0.8-1.4,1c-0.1,0.7,3,0.4,3.8,0.9c3-3.2,7.3-3.6,9-5.7c0.8-1,1-2.1,1.9-3.2
      c0.7-0.7,1.1-1.3,1.7-2.1c0.4-0.3,0.8-0.5,1.2-0.7c-0.4-0.1-0.8,0-1.2,0.1c-0.7-0.8-2.4-0.6-2.6-0.5
      C548.3,113.5,551.7,106.7,566.6,104.3z M153.3,276.6c-4.3,3.6-2.5,9-3.7,11.8c-3.6-3.7-6.5-10.2-11.7-12.8
      c-6.1-2.9-19.4-0.4-35.9,5.8c15.9,2.8,32.3-6.3,44.8,10.3c1.2,1.6,0.6,5.4-1.7,6.6c-0.9,0.5-2.2,1-3.4,1.6c-1,0.5-1.4,0.8-1.4,1
      c-0.1,0.7,3,0.4,3.8,0.9c3-3.2,7.3-3.6,9-5.7c0.8-1,1-2.1,1.9-3.2c0.7-0.7,1.1-1.3,1.7-2.1c0.4-0.3,0.8-0.5,1.2-0.7
      c-0.4-0.1-0.8,0-1.2,0.1c-0.7-0.8-2.4-0.6-2.6-0.5c1.9-8,5.3-14.9,20.2-17.3C161.5,272.3,157.1,273.4,153.3,276.6z M484.9,32.3
      c-6.6-11.4-7-8.2-18-4c-2,0.8-4,1.2-5.5,0.9c1.1-1.1,1.2-1.8,1.7-3c0.3-0.5,0.8-1.3,1.7-1.9c-0.1-0.3-1.5,0.7-2.1,0.7
      c-1.2-0.9-1.8-0.3-2.6,0.1c-1,0.5-1.5,1.5-2.5,2c-3.7-3.4-10.1-12.3-16.2-11.2c-1.4,0.3-3.1,0.9-5,2.2c0,0-8.1,6.1-14.4,9.4
      c-3.8,2-5.5,2.7,0.4,1.7c6.8-1.2,12.1-6.4,19.6-6.2c4.2,0.2,9.5,1.6,12.5,7.3c0,0-2.7,5.5-6.8,3.4c0.9,1,1.4,1.8,4.8,1.7
      c-0.6,0.6-3.2,0.2-2.9,0.3c0,0,1.8,1,3.8,0.2c2.5,1.1,5.7-0.8,6.6-3c0,0,5.1,0,10.8-0.9c6.9-1.1,4.9-1.9,9.8,3.2
      c1.9,2,2.8,3.4,4,4.6c12,12.5,9,5.8,2.9-3.4C486.8,35.4,485.9,34.1,484.9,32.3z"
  />

  <!-- Main body / column / base -->
  <path
    fill="currentColor"
    d="M529.9,609.3L529.9,609.3C529.9,609.3,529.8,609.4,529.9,609.3c-0.1,0.1-0.1,0.1-0.1,0.1
      c-0.5,0.6-2.3,2.8-2.6,4.3c-0.4,1.7-2,6.3-8,8.1l2,212.9l-130.3,86.5l-127.1-85.3v-214c-6-1.7-7.6-6.4-8-8.1
      c-0.3-1.5-2.1-3.7-2.6-4.3c0,0,0,0,0-0.1c0,0-0.1-0.1-0.1-0.1h0c-0.4-0.5-0.6-1-0.6-1.5c0-8.8,62.2-16,139-16s139,7.1,139,16
      C530.5,608.3,530.3,608.8,529.9,609.3z M287.9,638.9c0-5.3-2.3-5.6-2.3-5.6s-2.3,2.9-2.3,8.3V653c1.5-0.2,3-0.5,4.6-0.7V638.9z
      M337.8,635.5c0-5.3-3.8-6.3-3.8-6.3s-3.8,2.3-3.8,7.6v11.8c2.5-0.1,5-0.3,7.6-0.4V635.5z M351.5,680.2c0-9.1-9.9-10.7-9.9-10.7
      s-9.9,3.9-9.9,13v20.2c6.5-0.2,13.1-0.4,19.8-0.6V680.2z M396,634.6c0-5.3-4.5-7-4.5-7s-4.5,1.6-4.5,7v12.5c1.5,0,3,0,4.5,0
      c1.5,0,3,0,4.5,0V634.6z M431.5,680.2V702c6.7,0.2,13.3,0.4,19.8,0.6v-20.2c0-9.1-9.9-13-9.9-13S431.5,671.1,431.5,680.2z
      M452.7,636.8c0-5.3-3.8-7.6-3.8-7.6s-3.8,1-3.8,6.3v12.8c2.6,0.1,5.1,0.2,7.6,0.4V636.8z M499.8,641.5c0-5.3-2.3-8.3-2.3-8.3
      s-2.3,0.3-2.3,5.6v13.4c1.6,0.2,3.2,0.4,4.6,0.7V641.5z M524.7,506c-2,1.1-3,3.6-4.9,4.2v86.1c-21-5.8-70.5-9.8-128.2-9.8
      c-57.7,0-107.2,4-128.2,9.8v-86.1c-1.9-0.6-3-3.1-4.9-4.2c-2-1.1-4.4-4.1-4.5-7.1c0-7.9,61.6-14.3,137.6-14.3
      c76,0,137.6,6.4,137.6,14.3C529,501.9,526.6,504.9,524.7,506z M279.6,535.6c0-11.2-3.1-21.5-7-20.2c-3.9,1.3-7.1,13.7-7.1,24.9v50.2
      c3.9-1,8.6-1.9,14-2.7V535.6z M308,575.8c-1.5,0.1-2.9,0.3-4.3,0.4v-30.7c0-4.9,1.9-9.3,4.3-10.7v-2.4c0-11.8-5.1-20.9-11.3-19.5
      c-6.3,1.4-11.3,12.7-11.3,24.5v49.4c6.7-0.9,14.3-1.7,22.6-2.5V575.8z M357.5,531.6c0-12-9.7-22-20.5-21.5
      c-10.8,0.5-18.7,11.5-18.7,23.4v50.1c12-0.9,25.2-1.5,39.3-1.9V531.6z M413.2,531.3c0-12-9.7-21.7-21.7-21.7
      c-12,0-21.7,9.7-21.7,21.7v50.1c7.1-0.1,14.3-0.2,21.7-0.2c7.4,0,14.6,0.1,21.7,0.2V531.3z M464.8,533.5c0-12-7.9-22.9-18.7-23.4
      c-10.8-0.5-20.5,9.5-20.5,21.5v50.1c14.1,0.4,27.3,1.1,39.3,1.9V533.5z M497.7,537.5c0-11.8-5.1-23.1-11.3-24.5
      c-6.3-1.4-11.3,7.7-11.3,19.5v2.4c2.4,1.4,4.3,5.8,4.3,10.7v30.7c-1.4-0.1-2.9-0.3-4.3-0.4v8.6c8.3,0.7,15.9,1.5,22.6,2.5V537.5z
      M517.4,540.3c0-11.2-3.2-23.6-7.1-24.9c-3.9-1.3-7,9.1-7,20.2v52.1c5.4,0.8,10.1,1.7,14,2.7V540.3z M437.8,532.5
      c5,0.3,9.1,5,9.1,10.5v30.8c-5.9-0.3-12-0.5-18.3-0.7v-31C428.7,536.6,432.8,532.3,437.8,532.5z M381.4,572.6v-31.2
      c0-5.6,4.5-10.1,10.1-10.1c5.6,0,10.1,4.5,10.1,10.1v31.2c-3.3,0-6.7,0-10.1,0C388.1,572.6,384.7,572.6,381.4,572.6z M345.2,532.5
      c5-0.2,9.1,4.1,9.1,9.6v31c-6.3,0.2-12.4,0.4-18.3,0.7v-30.8C336,537.5,340.1,532.8,345.2,532.5z M511.7,432.6c-1.2,4.1-7,7-7,7
      s0.1,2.3-2.6,2.4v43.5c-4.4-0.6-9.3-1.2-14.6-1.7c0.3,0,0.5,0.1,0.8,0.1V457c0-5.1-2.9-10.1-6.4-11.2c-3.5-1.1-6.4,2.2-6.4,7.3v29.7
      c0.2,0,0.3,0,0.5,0c-8.2-0.7-17.2-1.2-26.8-1.7c0.2,0,0.4,0,0.6,0v-29.8c0-5.2-4-9.9-9-10.3c-5-0.5-9,3.4-9,8.7v30.8
      c-9.8-0.3-20.1-0.5-30.7-0.6v-30.6c0-5.3-4.3-9.6-9.6-9.6s-9.6,4.3-9.6,9.6v30.6c-10.6,0.1-20.9,0.3-30.7,0.6v-30.8
      c0-5.2-4-9.1-9-8.7c-5,0.5-9,5.1-9,10.3v29.8c0.2,0,0.4,0,0.6,0c-9.6,0.5-18.6,1-26.8,1.7c0.2,0,0.3,0,0.5,0V453
      c0-5.1-2.9-8.4-6.4-7.3c-3.5,1.1-6.4,6.1-6.4,11.2v26.9c0.3,0,0.5-0.1,0.8-0.1c-5.3,0.5-10.2,1.1-14.6,1.7V442
      c-2.7-0.1-2.6-2.4-2.6-2.4s-5.9-2.9-7-7c-0.1-0.3-0.2-0.5-0.2-0.8c0-8.6,53.9-15.6,120.3-15.6c66.4,0,120.3,7,120.3,15.6
      C511.8,432,511.8,432.3,511.7,432.6z M303.5,417.8l23.6-69.9v-17.8l2.8-3.6h4.4l54.5-161.4c-3.9-1.2-6.7-4.7-6.7-8.9
      c0-4.6,3.3-8.4,7.7-9.2v-7.6l-4-5.1l1.1-25l3-2.9h0.3c-1.1-0.5-1.8-1.5-1.8-2.8c0-1.1,0.6-1.9,1.4-2.5V70h3.4v31.1
      c0.8,0.6,1.4,1.4,1.4,2.5c0,1.2-0.7,2.3-1.8,2.8h0.3l3,2.9l1.1,25l-4,5.1v7.6c4.4,0.8,7.7,4.6,7.7,9.2c0,4.2-2.8,7.8-6.7,8.9
      l54.5,161.4h4.4l2.8,3.6v17.8l23.6,69.9c-22-3.1-53.3-5-88-5C356.7,412.8,325.5,414.7,303.5,417.8z M398.4,320.7l-6.9-3.9l-6.9,3.9
      v27h13.7V320.7z"
  />
</svg>
